{"accessors":[{"bufferView":2,"componentType":5126,"count":6119,"max":[9.509581565856934,4.971290111541748,-3.117652177810669],"min":[-9.509581565856934,0.838360071182251,-9.433534622192383],"type":"VEC3"},{"bufferView":2,"byteOffset":73428,"componentType":5126,"count":6119,"max":[1,1,1],"min":[-1,-1,-1],"type":"VEC3"},{"bufferView":1,"componentType":5126,"count":6119,"max":[0.9997506141662598,1],"min":[-3.5762786865234375e-7,-0.0004597711958922446],"type":"VEC2"},{"bufferView":0,"componentType":5125,"count":16020,"max":[6118],"min":[0],"type":"SCALAR"},{"bufferView":2,"byteOffset":146856,"componentType":5126,"count":5632,"max":[8.826367378234863,4.822742462158203,10.406744956970215],"min":[-8.826367378234863,1.2464866638183594,3.421437978744507],"type":"VEC3"},{"bufferView":2,"byteOffset":214440,"componentType":5126,"count":5632,"max":[0.9933269023895264,0.9996660351753235,0.9989317059516907],"min":[-0.9933268427848816,-0.999434769153595,-0.9989322423934937],"type":"VEC3"},{"bufferView":1,"byteOffset":48952,"componentType":5126,"count":5632,"max":[1,0.9023438692092896],"min":[0,0],"type":"VEC2"},{"bufferView":0,"byteOffset":64080,"componentType":5125,"count":15156,"max":[5631],"min":[0],"type":"SCALAR"},{"bufferView":2,"byteOffset":282024,"componentType":5126,"count":1078,"max":[3.098618507385254,5.355722904205322,5.115825653076172],"min":[-3.0986061096191406,1.4361507892608643,-7.039333343505859],"type":"VEC3"},{"bufferView":2,"byteOffset":294960,"componentType":5126,"count":1078,"max":[0.9953805208206177,0.9990903735160828,1],"min":[-0.9953805804252625,-0.999812662601471,-0.9999149441719055],"type":"VEC3"},{"bufferView":1,"byteOffset":94008,"componentType":5126,"count":1078,"max":[0.9726481437683105,1],"min":[0,0],"type":"VEC2"},{"bufferView":0,"byteOffset":124704,"componentType":5125,"count":3408,"max":[1077],"min":[0],"type":"SCALAR"},{"bufferView":2,"byteOffset":307896,"componentType":5126,"count":7961,"max":[3.2484183311462402,4.988131046295166,8.505066871643066],"min":[-3.2484183311462402,1.2520869970321655,-7.389304161071777],"type":"VEC3"},{"bufferView":2,"byteOffset":403428,"componentType":5126,"count":7961,"max":[1,1,1],"min":[-1,-1,-1],"type":"VEC3"},{"bufferView":1,"byteOffset":102632,"componentType":5126,"count":7961,"max":[1,0.9988908171653748],"min":[0,-0.000004391447873786092],"type":"VEC2"},{"bufferView":0,"byteOffset":138336,"componentType":5125,"count":34044,"max":[7960],"min":[0],"type":"SCALAR"}],"asset":{"extras":{"author":"DJ (https://sketchfab.com/DJSwag)","license":"CC-BY-4.0 (http://creativecommons.org/licenses/by/4.0/)","source":"https://sketchfab.com/3d-models/drone-uvs-df2534f4210547fc8cb9e39a5e50217a","title":"Drone UV's"},"generator":"Sketchfab-9.85.0","version":"2.0"},"bufferViews":[{"buffer":0,"byteLength":274512,"byteOffset":0,"name":"floatBufferViews","target":34963},{"buffer":0,"byteLength":166320,"byteOffset":274512,"byteStride":8,"name":"floatBufferViews","target":34962},{"buffer":0,"byteLength":498960,"byteOffset":440832,"byteStride":12,"name":"floatBufferViews","target":34962}],"buffers":[{"byteLength":939792,"uri":"data:application/octet-stream;base64,"}],"images":[{"uri":"data:application/octet-stream;base64,"}],"materials":[{"doubleSided":true,"emissiveFactor":[0,0,0],"name":"frontWings","pbrMetallicRoughness":{"baseColorFactor":[1,1,1,1],"baseColorTexture":{"index":0,"texCoord":0},"metallicFactor":0,"roughnessFactor":0.6}},{"doubleSided":true,"emissiveFactor":[0,0,0],"name":"backWings","pbrMetallicRoughness":{"baseColorFactor":[1,1,1,1],"baseColorTexture":{"index":0,"texCoord":0},"metallicFactor":0,"roughnessFactor":0.6}},{"doubleSided":true,"emissiveFactor":[0,0,0],"name":"shell","pbrMetallicRoughness":{"baseColorFactor":[1,1,1,1],"baseColorTexture":{"index":0,"texCoord":0},"metallicFactor":0,"roughnessFactor":0.9207483816249483}},{"doubleSided":true,"emissiveFactor":[0,0,0],"name":"body","pbrMetallicRoughness":{"baseColorFactor":[1,1,1,1],"baseColorTexture":{"index":0,"texCoord":0},"metallicFactor":0,"roughnessFactor":0.6}}],"meshes":[{"name":"polySurface158_frontWings_0","primitives":[{"attributes":{"NORMAL":1,"POSITION":0,"TEXCOORD_0":2},"indices":3,"material":0,"mode":4}]},{"name":"polySurface159_backWings_0","primitives":[{"attributes":{"NORMAL":5,"POSITION":4,"TEXCOORD_0":6},"indices":7,"material":1,"mode":4}]},{"name":"polySurface162_shell_0","primitives":[{"attributes":{"NORMAL":9,"POSITION":8,"TEXCOORD_0":10},"indices":11,"material":2,"mode":4}]},{"name":"polySurface105_body_0","primitives":[{"attributes":{"NORMAL":13,"POSITION":12,"TEXCOORD_0":14},"indices":15,"material":3,"mode":4}]}],"nodes":[{"children":[1],"name":"RootNode (gltf orientation matrix)","rotation":[-0.7071067811865475,0,0,0.7071067811865476]},{"children":[2],"name":"RootNode (model correction matrix)"},{"children":[3],"matrix":[1,0,0,0,0,0,1,0,0,-1,0,0,0,0,0,1],"name":"5d4989d9eeea440581db0cf0a41f3a39.fbx"},{"children":[4,6,8,10],"name":"RootNode"},{"children":[5],"name":"polySurface158"},{"mesh":0,"name":"polySurface158_frontWings_0"},{"children":[7],"name":"polySurface159"},{"mesh":1,"name":"polySurface159_backWings_0"},{"children":[9],"name":"polySurface162"},{"mesh":2,"name":"polySurface162_shell_0"},{"children":[11],"name":"polySurface105"},{"mesh":3,"name":"polySurface105_body_0"}],"samplers":[{"magFilter":9729,"minFilter":9987,"wrapS":10497,"wrapT":10497}],"scene":0,"scenes":[{"name":"OSG_Scene","nodes":[0]}],"textures":[{"sampler":0,"source":0}]}